<svg xmlns="http://www.w3.org/2000/svg" xmlns:xlink="http://www.w3.org/1999/xlink" width="3135.887" height="780.824" viewBox="0 0 3135.887 780.824">
  <defs>
    <style>
      .cls-1 {
        opacity: 0.201;
      }

      .cls-2, .cls-5 {
        opacity: 0.7;
      }

      .cls-2 {
        fill: url(#linear-gradient);
      }

      .cls-3, .cls-6, .cls-9 {
        fill: none;
      }

      .cls-3 {
        stroke: #a3a0fb;
      }

      .cls-3, .cls-4, .cls-6, .cls-7 {
        stroke-width: 2px;
      }

      .cls-4, .cls-7 {
        fill: #fff;
      }

      .cls-4 {
        stroke: #a4a1fb;
      }

      .cls-5 {
        fill: url(#linear-gradient-3);
      }

      .cls-6 {
        stroke: #54d8ff;
      }

      .cls-7 {
        stroke: #55d8fe;
      }

      .cls-8 {
        stroke: none;
      }
    </style>
    <linearGradient id="linear-gradient" x1="0.5" x2="0.5" y2="1" gradientUnits="objectBoundingBox">
      <stop offset="0" stop-color="#a7a7ff"/>
      <stop offset="1" stop-color="#fff" stop-opacity="0"/>
    </linearGradient>
    <linearGradient id="linear-gradient-3" x1="0.5" x2="0.5" y2="1" gradientUnits="objectBoundingBox">
      <stop offset="0" stop-color="#54d8ff"/>
      <stop offset="1" stop-color="#fff" stop-opacity="0"/>
    </linearGradient>
  </defs>
  <g id="Group_260" data-name="Group 260" transform="translate(-1011.241 -3079.835)">
    <g id="Products_Sold_Graph" data-name="Products Sold Graph" class="cls-1" transform="translate(1458.471 3069.726)">
      <path id="Filled.Graph" class="cls-2" d="M330,764.877V546.706s308.5,143.1,555,152.089c266.539-8.71,312.693-69.952,520.308-152.089,177.416-68.461,354.346-87.251,524.168-82.413s317.013,78.793,517.612,86.372c353.879-30.534,534.429-184.911,558.338-249.388v544.74L330,846.259Z" transform="translate(-317.723 -288.325)"/>
      <path id="Line.Graph" class="cls-3" d="M313,493.785S619.512,640.3,861.863,643.452s335.438-75.606,521.062-149.472,362.09-86.472,524.554-83.989,320.4,79.889,520.019,84,522.561-133.8,558.472-248.748" transform="translate(-298.268 -234.833)"/>
      <g id="Mar.Ellipse" class="cls-4" transform="translate(1072.897 247.907)">
        <circle class="cls-8" cx="12.259" cy="12.259" r="12.259"/>
        <circle class="cls-9" cx="12.259" cy="12.259" r="11.259"/>
      </g>
      <g id="Feb.Ellipse" class="cls-4" transform="translate(718.407 383.633)">
        <circle class="cls-8" cx="12.259" cy="12.259" r="12.259"/>
        <circle class="cls-9" cx="12.259" cy="12.259" r="11.259"/>
      </g>
    </g>
    <g id="Products_Sold_Graph-2" data-name="Products Sold Graph" class="cls-1" transform="translate(1331.471 3302.726)">
      <path id="Filled.Graph-2" data-name="Filled.Graph" class="cls-2" d="M330,764.877V546.706s308.5,143.1,555,152.089c266.539-8.71,312.693-69.952,520.308-152.089,177.416-68.461,354.346-87.251,524.168-82.413s317.013,78.793,517.612,86.372c353.879-30.534,534.429-184.911,558.338-249.388v544.74L330,846.259Z" transform="translate(-317.723 -288.325)"/>
      <path id="Line.Graph-2" data-name="Line.Graph" class="cls-3" d="M313,493.785S619.512,640.3,861.863,643.452s335.438-75.606,521.062-149.472,362.09-86.472,524.554-83.989,320.4,79.889,520.019,84,522.561-133.8,558.472-248.748" transform="translate(-298.268 -234.833)"/>
      <g id="Mar.Ellipse-2" data-name="Mar.Ellipse" class="cls-4" transform="translate(1072.897 247.907)">
        <circle class="cls-8" cx="12.259" cy="12.259" r="12.259"/>
        <circle class="cls-9" cx="12.259" cy="12.259" r="11.259"/>
      </g>
    </g>
    <g id="Total_Views_Graph" data-name="Total Views Graph" class="cls-1" transform="translate(1300.074 3092.582)">
      <path id="Filled.Graph-3" data-name="Filled.Graph" class="cls-5" d="M330,687.576V354.422S631.107,685.647,878.452,698.112c275.977-2.807,278.239-171.952,520.751-264.548,203.024-72.706,357.942,125.622,527.763,130.459s287.023-135.926,518.71-145.705c300.179,14.727,541.051,202.792,559.742,212.9V768.716L330,768.958Z" transform="translate(-313.715 -344.568)"/>
      <path id="Line.Graph-3" data-name="Line.Graph" class="cls-6" d="M312.953,279.164S623.431,616.493,866.082,619.648s325.629-198.754,520.459-266.824,363.846,129.84,526.511,132.324,318.406-148.686,518.271-144.577S2859.7,459.03,2986.03,549.234" transform="translate(-298.327 -266.489)"/>
      <g id="May.Ellipse" class="cls-7" transform="translate(2114.927 61.363)">
        <circle class="cls-8" cx="12.259" cy="12.259" r="12.259"/>
        <circle class="cls-9" cx="12.259" cy="12.259" r="11.259"/>
      </g>
      <g id="Mar.Ellipse-3" data-name="Mar.Ellipse" class="cls-7" transform="translate(1155.767 60.537)">
        <circle class="cls-8" cx="12.259" cy="12.259" r="12.259"/>
        <circle class="cls-9" cx="12.259" cy="12.259" r="11.259"/>
      </g>
    </g>
    <g id="Total_Views_Graph-2" data-name="Total Views Graph" class="cls-1" transform="translate(997.351 3202.919)">
      <path id="Filled.Graph-4" data-name="Filled.Graph" class="cls-5" d="M330,687.576V354.422S631.107,685.647,878.452,698.112c275.977-2.807,278.239-171.952,520.751-264.548,203.024-72.706,357.942,125.622,527.763,130.459s287.023-135.926,518.71-145.705c300.179,14.727,541.051,202.792,559.742,212.9V768.716L330,768.958Z" transform="translate(-314.715 -344.568)"/>
      <path id="Line.Graph-4" data-name="Line.Graph" class="cls-6" d="M312.953,279.164S623.431,616.493,866.082,619.648s325.629-198.754,520.459-266.824,363.846,129.84,526.511,132.324,318.406-148.686,518.271-144.577S2859.7,459.03,2986.03,549.234" transform="translate(-298.327 -266.489)"/>
      <g id="Apr.Ellipse" class="cls-7" transform="translate(1701.637 192.18)">
        <circle class="cls-8" cx="12.259" cy="12.259" r="12.259"/>
        <circle class="cls-9" cx="12.259" cy="12.259" r="11.259"/>
      </g>
      <g id="Mar.Ellipse-4" data-name="Mar.Ellipse" class="cls-7" transform="translate(1073.43 73.636)">
        <circle class="cls-8" cx="12.259" cy="12.259" r="12.259"/>
        <circle class="cls-9" cx="12.259" cy="12.259" r="11.259"/>
      </g>
    </g>
  </g>
</svg>
